<svg width="16" height="16" viewBox="0 0 16 16" fill="none" xmlns="http://www.w3.org/2000/svg">
    <defs>
        <linearGradient id="metalBlue16" x1="0%" y1="0%" x2="100%" y2="100%">
            <stop offset="0%" style="stop-color:#2E5CFF;stop-opacity:1" />
            <stop offset="100%" style="stop-color:#C8DCFF;stop-opacity:1" />
        </linearGradient>
    </defs>
    <rect width="16" height="16" fill="#000000" />
    <!-- Cloud simplificada -->
    <path d="M12 5C12 5 13 5 13.5 5.5C14 6 14 7 13.5 7.5C13 8 12 8 12 8H5C5 8 4 8 3.5 7.5C3 7 3 6 3.5 5.5C4 5 5 5 5 5C5 4.5 5.5 3.5 6.5 3C7.5 2.5 8.5 3 9 3.5C9.5 4 10 4.5 12 5Z" fill="url(#metalBlue16)" />
    <!-- Gear simplificada -->
    <circle cx="11" cy="11" r="3" fill="url(#metalBlue16)" opacity="0.8" />
    <circle cx="11" cy="11" r="1.5" fill="#000000" />
</svg>
